<!DOCTYPE svg PUBLIC "-//W3C//DTD SVG 1.1//EN" "http://www.w3.org/Graphics/SVG/1.1/DTD/svg11.dtd">
<!-- Uploaded to: SVG Repo, www.svgrepo.com, Transformed by: SVG Repo Mixer Tools -->
<svg width="256px" height="256px" viewBox="-2.4 -2.4 28.80 28.80" data-name="016_FOOD" id="_016_FOOD" xmlns="http://www.w3.org/2000/svg" fill="#1e2d4c" stroke="#1e2d4c" stroke-width="0.00024000000000000003">
<g id="SVGRepo_bgCarrier" stroke-width="0">
<path transform="translate(-2.4, -2.4), scale(0.8999999999999999)" d="M16,31.10799863615206C20.47156493959785,31.415861804556418,24.309329292975473,28.357953863637828,27.180682119871605,24.91629646015091C30.150646661732875,21.356441203825693,32.89228188561429,16.88971125588867,31.569232492778347,12.446424282260256C30.300650446068122,8.186058710386718,25.351439538520022,6.817525605351018,21.26828561343892,5.060292200439864C17.509271916547817,3.4425563621896775,13.598114392211187,1.6160729460987726,9.770969536325175,3.065284962278321C5.570788845769407,4.655753198022578,1.9512362757310817,8.198106129637758,1.2617645893152059,12.636093943485362C0.6102113527645803,16.830008473777603,3.949397413984819,20.181468288833567,6.596438498807238,23.499090057920295C9.24220538307317,26.81511483044788,11.767837422516731,30.8166181020647,16,31.10799863615206" fill="#acbdaa" strokewidth="0"/>
</g>
<g id="SVGRepo_tracerCarrier" stroke-linecap="round" stroke-linejoin="round" stroke="#CCCCCC" stroke-width="0.288">
<defs>
<style>.cls-1{fill:#1e2d4c;}</style>
</defs>
<path class="cls-1" d="M4,11a1,1,0,0,1-.71-.29,1,1,0,0,1,0-1.42L4.59,8,3.29,6.71a1,1,0,0,1,0-1.42l2-2A1,1,0,0,1,6.71,4.71L5.41,6l1.3,1.29a1,1,0,0,1,0,1.42l-2,2A1,1,0,0,1,4,11Z"/>
<path class="cls-1" d="M11,11a1,1,0,0,1-.71-.29,1,1,0,0,1,0-1.42L11.59,8l-1.3-1.29a1,1,0,0,1,0-1.42l2-2a1,1,0,1,1,1.42,1.42L12.41,6l1.3,1.29a1,1,0,0,1,0,1.42l-2,2A1,1,0,0,1,11,11Z"/>
<path class="cls-1" d="M18,11a1,1,0,0,1-.71-.29,1,1,0,0,1,0-1.42L18.59,8l-1.3-1.29a1,1,0,0,1,0-1.42l2-2a1,1,0,1,1,1.42,1.42L19.41,6l1.3,1.29a1,1,0,0,1,0,1.42l-2,2A1,1,0,0,1,18,11Z"/>
<path class="cls-1" d="M4,21a1,1,0,0,1-.71-.29,1,1,0,0,1,0-1.42L4.59,18l-1.3-1.29a1,1,0,0,1,0-1.42l2-2a1,1,0,0,1,1.42,1.42L5.41,16l1.3,1.29a1,1,0,0,1,0,1.42l-2,2A1,1,0,0,1,4,21Z"/>
<path class="cls-1" d="M11,21a1,1,0,0,1-.71-.29,1,1,0,0,1,0-1.42L11.59,18l-1.3-1.29a1,1,0,0,1,0-1.42l2-2a1,1,0,0,1,1.42,1.42L12.41,16l1.3,1.29a1,1,0,0,1,0,1.42l-2,2A1,1,0,0,1,11,21Z"/>
<path class="cls-1" d="M18,21a1,1,0,0,1-.71-.29,1,1,0,0,1,0-1.42L18.59,18l-1.3-1.29a1,1,0,0,1,0-1.42l2-2a1,1,0,0,1,1.42,1.42L19.41,16l1.3,1.29a1,1,0,0,1,0,1.42l-2,2A1,1,0,0,1,18,21Z"/>
</g>
<g id="SVGRepo_iconCarrier">
<defs>
<style>.cls-1{fill:#1e2d4c;}</style>
</defs>
<path class="cls-1" d="M4,11a1,1,0,0,1-.71-.29,1,1,0,0,1,0-1.42L4.59,8,3.29,6.71a1,1,0,0,1,0-1.42l2-2A1,1,0,0,1,6.71,4.71L5.41,6l1.3,1.29a1,1,0,0,1,0,1.42l-2,2A1,1,0,0,1,4,11Z"/>
<path class="cls-1" d="M11,11a1,1,0,0,1-.71-.29,1,1,0,0,1,0-1.42L11.59,8l-1.3-1.29a1,1,0,0,1,0-1.42l2-2a1,1,0,1,1,1.42,1.42L12.41,6l1.3,1.29a1,1,0,0,1,0,1.42l-2,2A1,1,0,0,1,11,11Z"/>
<path class="cls-1" d="M18,11a1,1,0,0,1-.71-.29,1,1,0,0,1,0-1.42L18.59,8l-1.3-1.29a1,1,0,0,1,0-1.42l2-2a1,1,0,1,1,1.42,1.42L19.41,6l1.3,1.29a1,1,0,0,1,0,1.42l-2,2A1,1,0,0,1,18,11Z"/>
<path class="cls-1" d="M4,21a1,1,0,0,1-.71-.29,1,1,0,0,1,0-1.42L4.59,18l-1.3-1.29a1,1,0,0,1,0-1.42l2-2a1,1,0,0,1,1.42,1.42L5.41,16l1.3,1.29a1,1,0,0,1,0,1.42l-2,2A1,1,0,0,1,4,21Z"/>
<path class="cls-1" d="M11,21a1,1,0,0,1-.71-.29,1,1,0,0,1,0-1.42L11.59,18l-1.3-1.29a1,1,0,0,1,0-1.42l2-2a1,1,0,0,1,1.42,1.42L12.41,16l1.3,1.29a1,1,0,0,1,0,1.42l-2,2A1,1,0,0,1,11,21Z"/>
<path class="cls-1" d="M18,21a1,1,0,0,1-.71-.29,1,1,0,0,1,0-1.42L18.59,18l-1.3-1.29a1,1,0,0,1,0-1.42l2-2a1,1,0,0,1,1.42,1.42L19.41,16l1.3,1.29a1,1,0,0,1,0,1.42l-2,2A1,1,0,0,1,18,21Z"/>
</g>
</svg>